<svg width="180" height="46" xmlns="http://www.w3.org/2000/svg" xml:space="preserve" version="1.1">

 <g>
  <title>Layer 1</title>
  <path id="svg_2" fill="#85CDF0" d="m29.9,25.6l-15.4,0c-2.1,0 -3.8,1.8 -3.8,3.9c0,0.8 0.2,1.6 0.7,2.2c0.3,-0.1 0.6,-0.2 0.9,-0.3l0,0l0,0c1,-0.4 2.1,-1.2 2.8,-1.8c0.2,-0.1 0.3,-0.2 0.4,-0.3c0.1,-0.1 0.2,-0.2 0.4,-0.3c0.6,-0.5 1.4,-1.1 2.6,-1.3c0.2,0 0.4,0 0.7,0c1,0 1.9,0.3 2.5,0.9c0.2,-0.1 0.4,-0.2 0.5,-0.3c0.3,-0.1 0.5,-0.3 0.7,-0.4c0.2,-0.1 0.5,-0.2 0.8,-0.2c0.6,0 1.2,0.3 1.5,0.9c0.2,0.4 0.4,1.1 -0.2,2.2c-0.1,0.2 -0.3,0.4 -0.4,0.7c-0.3,0.6 -0.7,1.2 -1.3,2l6.6,0c2.1,0 3.8,-1.8 3.8,-3.9c0,-2.2 -1.7,-4 -3.8,-4z" class="st0"/>
  <path id="svg_3" fill="#0097E0" d="m5.7,20.3l1,0c0.6,0 1,-0.4 1,-1c0,-0.6 -0.4,-1 -1,-1l-1,0c-2.1,0 -3.7,-1.7 -3.7,-3.9c0,-2.1 1.6,-3.8 3.6,-3.9l0,2.1l2.8,-2.9l-2.8,-3l0,1.7c-3,0.2 -5.6,2.8 -5.6,6c0,3.3 2.5,5.9 5.7,5.9z" class="st1"/>
  <path id="svg_4" fill="#0097E0" d="m38.4,18.6l-1,0c-0.6,0 -1,0.4 -1,1c0,0.6 0.4,1 1,1l1,0c2.1,0 3.7,1.7 3.7,3.9c0,2.1 -1.6,3.8 -3.6,3.9l0,-2.1l-2.8,2.7l2.8,3l0,-1.7c3,-0.1 5.5,-2.6 5.5,-5.9c0.1,-3.3 -2.4,-5.8 -5.6,-5.8z" class="st1"/>
  <path id="svg_5" fill="#85CDF0" d="m29.9,15.3l-15.4,0c-2.1,0 -3.8,1.8 -3.8,3.9s1.7,3.9 3.8,3.9l15.4,0c2.1,0 3.8,-1.8 3.8,-3.9s-1.7,-3.9 -3.8,-3.9z" class="st0"/>
  <path id="svg_6" fill="#85CDF0" d="m29.9,5.1l-15.4,0c-2.1,0 -3.8,1.8 -3.8,3.9l0,0c0,2.2 1.7,3.9 3.8,3.9l15.4,0c2.1,0 3.8,-1.8 3.8,-3.9l0,0c0,-2.2 -1.7,-3.9 -3.8,-3.9z" class="st0"/>
  <path id="svg_7" fill="#0097E0" d="m19.5,39c0.2,1.3 -0.4,1 -0.9,0.6c-0.3,-0.2 -1.2,-0.7 -1.7,-1c0.8,-0.4 1.5,-0.9 2,-1.3c0.3,0.5 0.5,1.1 0.6,1.7zm-1.1,-8c-0.1,0 -0.2,0.1 -0.2,0.2s0.1,0.2 0.2,0.2s0.2,-0.1 0.2,-0.2s-0.1,-0.2 -0.2,-0.2zm5.8,-0.7c-0.8,1.3 -1.8,3.3 -4.6,5.9c-0.6,0.6 -1.9,1.5 -3.2,2.1c-0.4,0.2 -1,0.4 -1.6,0.6c0.4,-0.6 0.6,-1.2 0.7,-1.8l-0.3,0c-0.7,2.3 -2.4,4.3 -4.5,5c-1.3,0.4 -1,-0.3 -0.8,-0.9c0.2,-0.4 0.7,-2.4 0.9,-3.4l-0.4,-0.1c0,0 0,0.2 -0.1,0.4c-0.1,0.2 -0.1,0.5 -0.2,0.8c-1.2,-0.4 -2.4,-1 -3.3,-2.1c-1.3,-1.6 -1.9,-3.1 -2.2,-5.9c-0.1,-0.7 -0.8,-1.4 -1.6,-2.3c-1,-1.1 -1,-2.7 -0.4,-2.9c0.4,-0.1 2.5,0.9 3.2,1.4c0.8,-0.6 2,-1.6 2.4,-1.3c0.3,0.2 0.4,1.2 -0.3,2.7c-1.5,3.1 0.6,4 1.1,4.1c0.9,0.2 2.3,0.3 3.7,-0.3c1.3,-0.5 2.9,-1.8 3.4,-2.2c0.7,-0.5 1.4,-1.2 2.5,-1.4c1.3,-0.2 2.3,0.2 2.8,1.1c0.6,-0.2 1.4,-0.8 2,-1c0.5,-0.3 1.6,0.1 0.8,1.5zm-5.4,1.1c0,-0.3 -0.2,-0.6 -0.5,-0.6c-0.3,0 -0.5,0.3 -0.5,0.6s0.2,0.6 0.5,0.6c0.3,-0.1 0.5,-0.3 0.5,-0.6z" class="st1"/>
  <text xml:space="preserve" text-anchor="start" font-family="Noto Sans JP" font-size="24" id="svg_25" y="32" x="54" stroke-width="0" fill="#282828">AuroraPlan</text>
 </g>
</svg>